<svg xmlns="http://www.w3.org/2000/svg" viewBox="0 0 100 100" width="100" height="100">
  <!-- Kuromi Jester Hood & Body -->
  <path d="M 50 15 C 25 15, 12 35, 12 58 C 12 75, 28 90, 50 90 C 72 90, 88 75, 88 58 C 88 35, 75 15, 50 15 Z" fill="#262626"/>
  <!-- Spiky Jester Ears Left & Right -->
  <path d="M 22 25 L 8 5 C 15 15, 25 22, 28 28 Z" fill="#262626"/>
  <circle cx="8" cy="5" r="3" fill="#f472b6"/>
  <path d="M 78 25 L 92 5 C 85 15, 75 22, 72 28 Z" fill="#262626"/>
  <circle cx="92" cy="5" r="3" fill="#f472b6"/>
  <!-- Face Cutout -->
  <ellipse cx="50" cy="62" rx="28" ry="22" fill="#fff5f7"/>
  <!-- Cute Eyes -->
  <ellipse cx="38" cy="58" rx="4" ry="6" fill="#18181b"/>
  <ellipse cx="62" cy="58" rx="4" ry="6" fill="#18181b"/>
  <circle cx="39" cy="56" r="1.5" fill="#ffffff"/>
  <circle cx="63" cy="56" r="1.5" fill="#ffffff"/>
  <!-- Eyelashes -->
  <path d="M 33 54 L 30 52" stroke="#18181b" stroke-width="1.5" stroke-linecap="round"/>
  <path d="M 67 54 L 70 52" stroke="#18181b" stroke-width="1.5" stroke-linecap="round"/>
  <!-- Nose & Mouth -->
  <circle cx="50" cy="63" r="1.5" fill="#f472b6"/>
  <path d="M 45 67 Q 50 71 55 67" stroke="#18181b" stroke-width="1.5" stroke-linecap="round" fill="none"/>
  <!-- Pink Skull Emblem on Hood -->
  <circle cx="50" cy="30" r="9" fill="#f472b6"/>
  <circle cx="46" cy="29" r="2.5" fill="#18181b"/>
  <circle cx="54" cy="29" r="2.5" fill="#18181b"/>
  <path d="M 47 34 L 47 37 M 50 34 L 50 37 M 53 34 L 53 37" stroke="#18181b" stroke-width="1"/>
  <!-- Pink Cheeks -->
  <ellipse cx="32" cy="64" rx="3.5" ry="2" fill="#f472b6" opacity="0.6"/>
  <ellipse cx="68" cy="64" rx="3.5" ry="2" fill="#f472b6" opacity="0.6"/>
</svg>
